<?xml version="1.0" encoding="utf-8"?>
<!-- Generator: Adobe Illustrator 25.2.3, SVG Export Plug-In . SVG Version: 6.00 Build 0)  -->
<svg version="1.1" id="Layer_1" xmlns="http://www.w3.org/2000/svg" xmlns:xlink="http://www.w3.org/1999/xlink" x="0px" y="0px"
	 viewBox="0 0 40.8 10.7" style="enable-background:new 0 0 40.8 10.7;" xml:space="preserve">
<g>
	<path d="M9.1,3.3l0.2,0.1C9.1,3.8,9,4,9,4.2S8.9,4.6,8.9,4.9v2.5c0,0.4,0,0.7,0.1,0.8s0.1,0.2,0.2,0.2c0,0,0.1,0,0.1,0
		c0,0,0.1-0.1,0.3-0.2l0.1,0.2L8.4,9.3C8.1,9.1,7.9,8.9,7.8,8.7S7.7,8.3,7.7,7.9L5.9,9.3c-0.7-0.5-1-1.1-1-1.6c0-0.4,0.1-0.7,0.2-1
		c0.2-0.4,0.5-0.9,1-1.4L5.4,3.8l0.1-0.2c0.2,0,0.3,0,0.3,0c0.5,0,0.9-0.2,1.2-0.5C7.3,3.3,7.6,3.4,8,3.5c0.3,0.1,0.6,0.2,0.8,0.2
		c0.1,0,0.1,0,0.2,0S9,3.5,9.1,3.3z M7.7,4.5l-2-0.6l0.7,1.5L7.7,6V4.5z M7.7,6.2L6.3,5.5C6,6,5.9,6.4,5.9,6.8
		c0,0.6,0.3,1.2,0.9,1.6l0.9-0.7V6.2z"/>
	<path d="M13.6,3.1l0.9,1.1l-0.9,0.8L12.9,4l-0.6,0.5v3.4L13,8.4L13.6,8l0.1,0.2l-1.5,1.2c-0.3-0.3-0.6-0.5-0.8-0.6
		s-0.5-0.2-0.7-0.3V8.3C10.8,8.2,11,8.1,11,7.9c0.1-0.1,0.1-0.4,0.1-0.7V4.8c0-0.3,0-0.5-0.1-0.6s-0.1-0.1-0.2-0.1
		c-0.1,0-0.2,0.1-0.4,0.2l-0.1-0.2l1.2-1.1c0.3,0.3,0.6,0.5,0.7,0.7c0.1,0.1,0.1,0.3,0.1,0.5L13.6,3.1z"/>
	<path d="M14.9,3.7l1.6-2h0.2l-0.1,1.6h1.2V4h-1.2v3.9l0.7,0.5l0.4-0.3l0.1,0.2l-1.3,1c-0.4-0.4-0.9-0.8-1.5-0.9V8.3
		c0.2-0.1,0.3-0.2,0.3-0.3c0.1-0.1,0.1-0.4,0.1-0.6V4h-0.6V3.7z"/>
	<path d="M19.6,3.1l1,0.9l-0.5,0.4v3.2c0,0.3,0,0.6,0.1,0.7c0.1,0.1,0.1,0.2,0.2,0.2c0,0,0.1,0,0.1,0c0,0,0.2-0.1,0.3-0.2L21,8.3
		l-1.3,1c-0.3-0.2-0.5-0.4-0.6-0.6S19,8.2,19,7.7V4.4L18.5,4L19.6,3.1z M20,1.1h0.7L20,2.4h-0.2L20,1.1z"/>
	<path d="M24.9,5.3L26.2,6v2.5c-0.3,0-0.6,0.1-0.9,0.2S24.8,9,24.4,9.3C24.2,9.2,23.9,9,23.7,9c-0.2-0.1-0.4-0.1-0.7-0.1
		c-0.4,0-0.7,0.1-1,0.3c-0.1,0.1-0.2,0.1-0.2,0.1c0,0-0.1,0-0.1-0.1s-0.1-0.1-0.1-0.1c0,0,0-0.1,0.1-0.2c0,0,0.1-0.1,0.2-0.3L22.5,8
		l0.8-1L22,6.3V4.1c0.4-0.1,0.7-0.3,0.9-0.4c0.2-0.2,0.4-0.4,0.7-0.6c0.5,0.2,0.9,0.4,1.2,0.4c0.2,0.1,0.4,0.1,0.6,0.1
		c0.2,0,0.4,0,0.5-0.1c0.1-0.1,0.2-0.2,0.2-0.3c0-0.1,0-0.1-0.1-0.2c-0.2-0.1-0.2-0.3-0.2-0.4c0-0.1,0-0.2,0.1-0.3s0.1-0.1,0.2-0.1
		c0.1,0,0.2,0,0.3,0.1s0.1,0.2,0.1,0.4c0,0.2,0,0.3-0.1,0.5S26.2,3.6,26,3.8L24.9,5.3z M24.2,6.2l-1.4,1.9C22.9,8,23.1,8,23.2,8
		s0.3,0,0.4,0c0.4,0,0.9,0.1,1.4,0.4V6.7L24.2,6.2z M23.2,5.7L24,6.1l1.3-1.7c-0.3,0.1-0.5,0.1-0.7,0.1c-0.5,0-0.9-0.2-1.4-0.5V5.7z
		"/>
	<path d="M27.1,3.7l1.6-2h0.2l-0.1,1.6H30V4h-1.2v3.9l0.7,0.5l0.4-0.3L30,8.3l-1.3,1c-0.4-0.4-0.9-0.8-1.5-0.9V8.3
		c0.2-0.1,0.3-0.2,0.3-0.3c0.1-0.1,0.1-0.4,0.1-0.6V4h-0.6V3.7z"/>
	<path d="M33.7,5.3L35,6v2.5c-0.3,0-0.6,0.1-0.9,0.2S33.6,9,33.2,9.3C32.9,9.2,32.7,9,32.5,9c-0.2-0.1-0.4-0.1-0.7-0.1
		c-0.4,0-0.7,0.1-1,0.3c-0.1,0.1-0.2,0.1-0.2,0.1c0,0-0.1,0-0.1-0.1s-0.1-0.1-0.1-0.1c0,0,0-0.1,0.1-0.2c0,0,0.1-0.1,0.2-0.3L31.3,8
		l0.8-1l-1.3-0.7V4.1c0.4-0.1,0.7-0.3,0.9-0.4c0.2-0.2,0.4-0.4,0.7-0.6c0.5,0.2,0.9,0.4,1.2,0.4c0.2,0.1,0.4,0.1,0.6,0.1
		c0.2,0,0.4,0,0.5-0.1c0.1-0.1,0.2-0.2,0.2-0.3c0-0.1,0-0.1-0.1-0.2c-0.2-0.1-0.2-0.3-0.2-0.4c0-0.1,0-0.2,0.1-0.3s0.1-0.1,0.2-0.1
		c0.1,0,0.2,0,0.3,0.1s0.1,0.2,0.1,0.4c0,0.2,0,0.3-0.1,0.5S35,3.6,34.8,3.8L33.7,5.3z M33,6.2l-1.4,1.9C31.7,8,31.9,8,32,8
		c0.1,0,0.3,0,0.4,0c0.4,0,0.9,0.1,1.4,0.4V6.7L33,6.2z M32,5.7l0.8,0.4L34,4.4c-0.3,0.1-0.5,0.1-0.7,0.1c-0.5,0-0.9-0.2-1.4-0.5
		V5.7z"/>
</g>
<g>
	<path d="M2.1,6.6L1.2,5.7l0.9-0.9L3,5.7L2.1,6.6z"/>
</g>
<g>
	<path d="M38.8,6.6l-0.9-0.9l0.9-0.9l0.9,0.9L38.8,6.6z"/>
</g>
<g>
</g>
<g>
</g>
<g>
</g>
<g>
</g>
<g>
</g>
<g>
</g>
</svg>
