<?xml version="1.0" encoding="utf-8"?>
<!-- Generator: Adobe Illustrator 25.2.3, SVG Export Plug-In . SVG Version: 6.00 Build 0)  -->
<svg version="1.1" id="Layer_1" xmlns="http://www.w3.org/2000/svg" xmlns:xlink="http://www.w3.org/1999/xlink" x="0px" y="0px"
	 viewBox="0 0 195.8 150.2" style="enable-background:new 0 0 195.8 150.2;" xml:space="preserve">
<style type="text/css">
	.st0{fill:none;}
	.st1{fill:#3227C4;}
</style>
<path class="st0" d="M92.6,45.9c-0.2-0.1-0.4-0.2-0.7-0.3c-0.3,0.1-0.5,0.2-0.8,0.2c0.3-0.1,0.5-0.2,0.8-0.2
	C92.1,45.7,92.4,45.8,92.6,45.9z"/>
<path class="st0" d="M72.5,32.4c0,0.2,0,0.4-0.1,0.7C72.4,32.9,72.5,32.6,72.5,32.4C72.5,32.4,72.5,32.4,72.5,32.4z"/>
<path class="st0" d="M70.9,43.5L70.9,43.5c0.1,0.2,0.2,0.4,0.3,0.6C71.1,43.9,71,43.7,70.9,43.5z"/>
<path class="st0" d="M171.6,93.2c0.4,0.9,0.7,1.8,1,2.7C172.3,95,171.9,94.1,171.6,93.2L171.6,93.2z"/>
<path class="st0" d="M130.3,4.6c-1.6,0.4-3.1,0.8-4.7,1.3C127.2,5.4,128.7,5,130.3,4.6L130.3,4.6z"/>
<path class="st0" d="M105.8,25.9c0.1-0.2,0.2-0.4,0.2-0.5C106,25.5,105.9,25.7,105.8,25.9C105.8,25.9,105.8,25.9,105.8,25.9z"/>
<path class="st1" d="M109.7,80.9C109.7,80.9,109.7,80.9,109.7,80.9c0.1-0.1,0.1-0.2,0.2-0.3C109.8,80.7,109.8,80.8,109.7,80.9z"/>
<path class="st1" d="M21.2,113.5c1.1,0,2.1,0.1,3.2,0.2c-0.4,0.9-0.8,1.8-1.3,2.6c-0.6,1-1.2,1.9-1.8,2.8c-0.8,1.2-0.6,2.1,0.8,2.6
	c2.4,0.8,4.8,1.6,7.2,2.2c8.6,2.1,17.2,3.8,26.1,2.2c1.9-0.4,2.4,0.2,1.5,2c-2.7,5.2-2.9,10.7-2.6,16.4c0.1,1.7,0.8,2.6,2.6,2.5
	c0.7,0,1.4,0,2.1-0.1c6.4-1.1,12-3.7,16.8-8.1c3.2-3,5.8-6.5,7.9-10.2c0.9-1.6,1.7-1.6,3.4-1c2.2,0.8,4.7,2,6.8,1.6
	c3.4-0.7,5.9,0.2,8.7,1.6c4,1.9,5.7,1.5,9-1.8c1.1-1.1,2.2-2.2,3.4-3.2c1.8-1.4,2.1-1.3,3.1,0.6c0.3,0.6,0.6,1.3,0.9,1.9
	c6.3,12,16.9,17.4,29.6,19.6c2.9,0.5,3.4-0.1,4.1-2.9c1.6-7.3,2.3-14.6,1.8-22.1c-0.1-1.9-0.6-3.8-1-5.7c1.9,0.8,3.8,1.4,5.6,2.3
	c1.6,0.8,2.6,0.5,3.4-1.1c1.8-3.4,3-6.9,3.1-10.8c0.1-3.4,0.2-3.5,3.5-3.4c7.5,0.4,14.5-1.2,21.1-4.5c4.3-2.2,5-3.8,2.7-7.9
	c-2.1-3.8-4.7-7.2-7.2-10.8c-0.7-1-0.9-1.5,0.4-2.2c2.3-1.3,4.5-2.8,6.7-4.3c1.3-0.9,1.3-2.1,0.3-3.2c-0.6-0.7-1.4-1.4-2.1-2
	c-2.6-2.2-5.7-3.6-9-4.4c-1.6-0.4-1.9-1-1.4-2.6c1.1-3.5,1.9-7,2.7-10.5c0.8-3.7,0.8-3.9-2.8-5.2c-10.4-3.7-21-4.8-31.5-0.3
	c-0.5,0.2-1,0.4-1.6,0.6c-0.2,0.1-0.7,0-0.7-0.2c-0.2-0.3-0.3-0.8-0.2-1.1c0.5-1,1.2-1.9,1.9-2.8c6.1-7.5,13-13.9,22.4-16.9
	c0.5-0.2,0.8-0.9,1.2-1.4c-0.5-0.1-1-0.4-1.4-0.4c-5.3,0.3-10.1,2.2-14.5,5c-4.5,2.9-8.6,6.2-11.8,10.6c-0.3,0.4-0.9,0.5-1.3,0.8
	c-0.2-0.4-0.3-0.8-0.5-1.1c-0.7-1.9-1.4-3.9-2.1-5.8c-3.9-1.2-2.8-4.3-2.7-7.1c0-1.7-0.2-3.3-0.5-5c-1.2-6.6-3.4-13-2.8-19.8
	c-0.8,0-1.7,0-2.5,0c-1,0.5-2,1-3,1.4c-7.1,2.1-13.4,5.6-18.6,10.9c-1,1-1.4,0.5-1.8-0.4c-1.7-3.7-4.6-6.3-7.9-8.5
	c-2.4-1.5-3.2-1.4-4.9,0.9c-2.1,2.8-3.3,5.8-3.4,9.3c0,1.7,0,3.4,0,5c0,2.8,0,2.9-2.8,3.2c-2.7,0.3-4.7,1.6-6.6,3.3
	c-1.8,1.6-3.6,3-5.6,4.4c-1.3,0.9-2.5,0.9-3.6-0.6c-5.9-8.1-14.8-10.6-24-12.2c-3.2-0.5-6.4-0.7-9.6-0.8c-2.6-0.1-3.2,0.5-3.1,2.9
	c0.7,11.9,2.7,23.4,12.4,31.9c1.5,1.3,3.3,2.1,4.8,3.3c0.3,0.3,0.5,1.4,0.3,1.6c-0.5,0.5-1.4,1-1.9,0.9c-0.7-0.2-1.3-1-2-1.5
	c-7.4-5.7-15.3-10.4-24.7-12c-2.6-0.4-5.3-0.3-7.9-0.4c-0.3,0-0.6,0.4-0.8,0.7c0.2,0.3,0.4,0.7,0.8,0.8c3.8,1.2,7.8,2.1,11.5,3.7
	c6.7,2.9,12.7,7.1,17.9,12.3c2.4,2.4,4.7,4.8,7.1,7.2c0.3,0.3,0.3,0.7,0.5,1.1c-0.4,0.1-0.8,0.3-1.2,0.3c-2.6-0.2-5.3-0.7-7.9-0.8
	c-11.9-0.3-22.5,3.7-32.7,9.4c-2.5,1.4-2.7,2-0.7,4.5c2.3,3,4.9,5.7,7.3,8.6c0.5,0.6,1.5,1.3,0,1.8c-7.2,2.1-12.9,6.5-18,11.8
	c0,0.8,0,1.7,0,2.5c4.6,2.9,9.3,5.1,14.8,5.3C17.9,113.7,19.5,113.5,21.2,113.5z M51.2,63.4C45.9,57.9,39.8,53.3,33,49.6
	c-0.4-0.2-0.8-0.6-1.2-0.9c0,0-0.1,0-0.1,0c-0.3-0.1-0.7-0.2-1-0.3c0.4,0.1,0.7,0.2,1.1,0.3c0,0,0.1,0,0.1,0.1
	c3.7,0.3,6.7,2.4,9.7,4.2c3.4,1.9,6.5,4.4,9.6,6.6c0.8,0.6,1.6,1.3,2,2.1c0.5,1.2,0.6,2.6,0.9,4C53.1,64.9,52.1,64.3,51.2,63.4z
	 M68.5,53.3c0.7,0.4,1.7,1.4,1.6,2.1c-0.2,6.4,3.6,10.7,7.7,14.8c0.9,0.9,1.9,1.7,2.7,2.7c1.6,2.1,0.8,3.7-1.7,4.5
	c-2.4,0.7-4.8,1.5-7.2,2.4c-0.4,0.1-0.5,0.8-0.8,1.2c0.4,0.2,0.7,0.4,1.1,0.5c0.8,0.1,1.7,0,2.5,0.1c4.2,0.7,8.1,1.6,10.2,6.1
	c1,2.2,3,4.1,4.9,5.6c1.8,1.4,2,2.9,1.6,4.8c-0.1,0.5-0.3,1.1-0.5,1.6c-1.7,5.6-3.4,6.5-8.4,3.8c-5.2-2.8-10.3-5.7-15.1-9
	c-6.5-4.4-9.9-10.9-10.2-18.8c-0.2-4-0.3-8-1.5-12c-1.6-5.5,3.4-10.7,10.5-10.8C66.3,52.9,67.6,52.8,68.5,53.3z M66.7,50.6
	c0.3-0.2,0.6-0.4,0.9-0.5c0.1,0,0.6,0.3,0.6,0.4c-0.1,0.3-0.3,0.5-0.6,0.9C67.2,51,67,50.8,66.7,50.6z M82.1,46c0.1-0.4,0-1,0.2-1.5
	c1.6-2.8,3.1-5.6,4.8-8.3c1.2-1.9,3.2-2.1,5.2-1.8c2.5,0.3,5,0.6,7.5,0.9c0.8,0.1,1.6,0.4,2.3,0.8c0.3,0.2,0.4,0.9,0.5,1.4
	c0,0.2-0.4,0.4-0.5,0.6c-2,3.8-4.6,6.1-9.5,5.8c-3.1-0.2-6.3,1.3-8.3,4.2c-0.3,0.4-0.8,0.6-1.2,0.9c-0.3-0.6-0.7-1.1-1-1.7
	C82.1,47,82.1,46.6,82.1,46z M146.1,72.4c0-0.8,0-1.7,0-2.5c0-1.2,0.7-1.8,1.8-1.8c2.1-0.1,4.2-0.3,6.3,0c4.6,0.5,7.3,4.5,5.5,8.8
	c-1.3,3.2-2,6.3-1.8,9.7c0.1,1.9-0.8,3.3-2.5,4c-4.6,2.1-7.4,5.8-9.4,10.2c-0.2,0.5-0.5,1-0.8,1.5c-4.2,8.5-12.6,11.8-21.3,8.3
	c-3.3-1.3-6.6-2.1-10.1-2.2c-3.1-0.1-4.3-1.3-4.7-4.2c-0.4-2.6,0.8-4.9,3.2-5.7c2.3-0.7,4.8-2,6.8,0.8c0.2,0.3,1,0.4,1.1,0.3
	c0.3-0.4,0.7-1.1,0.5-1.4c-0.9-2.1,0.5-2.8,1.8-4c2.4-2.3,4.7-4.8,6.7-7.4c2-2.8,1.8-2.9,5.2-2.3c4.8,0.9,9.1-1.4,10.7-5.9
	c0.7-1.9,0.9-4,1.3-6.1C146.3,72.4,146.2,72.4,146.1,72.4z M159.8,81.3c0.7-2.4,1.5-4.7,2.3-7c0.2-0.5,0.9-1,1.5-1.1
	c1.1-0.2,2.2-0.1,3.3-0.1c0,0,0-0.1,0-0.1c0.1,0,0.3,0,0.4,0c1.2,0.2,2.3,0.5,3.5,0.7c-0.9,0.7-1.8,1.5-2.7,2.2
	c-2.4,2.1-4.8,4.2-7.2,6.2c-0.3,0.2-0.7,0.3-1.1,0.4C159.9,82.1,159.7,81.7,159.8,81.3z M159.9,100c-0.3,0.1-0.8,0.5-1,0.4
	c-2.4-1.1-4.7-2.3-7-3.6c-0.3-0.2-0.3-1.5,0-2c0.4-0.7,1.2-1.1,2-1.5c1.3-0.7,2.7-1.3,4.1-2c0.3,1.3,0.5,2.6,0.8,3.9
	C159.1,96.7,159.5,98.1,159.9,100z M164.7,80.9c1.7-1.7,3.9-3.1,6.1-4.4c1.4-0.8,3.4-1.7,4.6-1.3c2.3,0.8,4.2,2.6,6.3,4
	c0.1,0.1,0.1,0.2,0.3,0.6c-0.3,0.3-0.7,0.6-1.1,0.9c-1.5,0.8-3.1,1.4-4.4,2.4c-2.2,1.6-4.4,3.4-6.4,5.3c-1,1-1.7,1.3-2.8,0.6
	c-0.4-0.2-0.8-0.4-1.1-0.5C158.9,85.7,159.4,86.2,164.7,80.9z M172.9,70.7c-2.4-0.8-4.6-1.1-6.4-2.1c-3.2-1.7-6.2-3.8-9.2-5.8
	c-0.9-0.6-0.9-1.3,0.2-1.8c0.4-0.2,0.7-0.4,1.1-0.6c2.4-1.1,4.8-3.1,7.2-3.1c2.2,0,4.3,2.3,6.5,3.5c1.3,0.7,2.7,1.5,4.1,2
	c1.5,0.5,1.6,1.3,0.9,2.5c-0.7,1.2-1.2,2.6-2,3.6C174.7,69.8,173.6,70.2,172.9,70.7z M156.8,64.8c2.7,1.9,5.7,3.5,8.5,5.3
	c0.4,0.2,0.6,0.7,0.9,1c-0.4,0.1-0.8,0.1-1.2,0.2c-0.3,0-0.6,0-0.8,0c0,0.1-0.1,0.2-0.1,0.4c-1.1-0.4-2.6-0.6-3.2-1.4
	c-2.4-3.4-5.7-4.2-9.5-4.1c-0.6,0-1.1,0-1.7-0.1c-0.1,0-0.3-0.7-0.1-0.8C151.7,63.1,154.3,63.1,156.8,64.8z M150.8,115.9
	c0.1,0.1,0.1,0.3,0.3,0.8c-0.5,0.1-1.1,0.4-1.5,0.3c-2.9-0.6-5.7-1.4-8.6-1.8c-2.2-0.3-4.5-0.1-6.7-0.2c-0.4,0-0.8-0.6-1.2-0.9
	c0.3-0.3,0.5-0.6,0.8-0.7c3.8-1.1,7.4-2.5,10.4-5.3c0.2-0.2,0.9-0.2,1.1,0C147.1,110.7,148.9,113.3,150.8,115.9z M105.9,97.6
	c-8.3-0.4-14.8-3.7-19.6-10.4c-0.4-0.6-0.6-1.4-0.9-2.1c0.7-0.1,1.4-0.3,2-0.2c3.3,0.3,6.4-0.3,9.1-2.4c0.9-0.7,1.4-0.7,1.9,0.4
	c1.1,2.4,2.9,4,5.2,5.2c0.9,0.5,1.7,1.4,2.4,2.2c1.7,2.2,3.5,4.3,6.5,5c0.4,0.1,0.7,0.5,1,0.7c-0.4,0.2-0.9,0.5-1.3,0.6
	C110.1,97,108,97.3,105.9,97.6z M112.3,56.4c-1.3-4.6-4.2-7.8-9.1-9c-3.3-0.8-4.2-0.2-4.4,3.2c-0.1,1-0.5,2.5-1.2,2.8
	c-0.7,0.3-2-0.4-2.9-1c-1.2-0.9-1.8-2.1-1.2-3.7c0.9-2.3,4.5-4.4,7.7-4.1c5.5,0.5,10,2.9,12.3,8.1c1.6,3.7,2.7,7.6,1.6,11.8
	c-0.4,1.7-0.6,3.6-0.9,5.3c0,0.2-0.3,0.4-0.5,0.6c-0.2-0.3-0.5-0.5-0.5-0.8c-0.1-1.5,0-3.1,0-4.6c0.1,0,0.3,0,0.4,0
	C113.2,62.1,113,59.2,112.3,56.4z M104.7,51.6c0,1.9-1.8,3.7-3.6,3.5c-0.4,0-1.1-0.8-1.1-1.3c0-0.9,0.4-1.9,0.5-2.9
	c0.2-0.9-0.2-2.3,1.4-1.9C103.4,49.3,104.7,49.9,104.7,51.6z M98.9,56.4c3.6,1.1,5.9,0.1,7.4-3.4c0.7-1.7,1.1-1.6,2.1-0.4
	c2.7,3.1,2.9,6.8,3.2,9.9c0,1.3,0,1.8,0,2.4c-0.1,0.5-0.2,1-0.3,1.6c-0.4-0.4-0.8-0.7-1.1-1.1c-1.6-2.1-3.7-2.9-6.4-3.4
	c-3.3-0.6-6.1-2.3-9.8-2c-3.1,0.2-5.1-5.6-3.3-8.4c0.1-0.2,1.1-0.1,1.2,0.1C93.3,54.4,96,55.5,98.9,56.4z M96.4,61.7
	c1.5-0.5,2.7-0.1,3.9,0.8c0.7,0.6,1.6,1.3,2.4,1.2c2.4-0.2,4.3,0.4,5.9,2.4c1.6,1.9,2.4,4.1,2.2,7.5c0,0.1-0.3,1.2-0.7,2.2
	c-0.2,0.4-0.7,0.7-1.1,1c-0.2-0.3-0.6-0.6-0.7-0.9c-1.1-2.7-3.2-4.4-5.5-6.1c-2.4-1.8-4.8-3.7-7.2-5.7c-0.5-0.4-0.8-1.1-1.1-1.6
	C95.1,62.2,95.7,61.9,96.4,61.7z M109.7,80.9c0.1-0.1,0.1-0.2,0.2-0.3c0,0,0.1,0,0.1-0.1c0.9-4.3,3.8-7.3,6.7-10.2
	c3.8-3.8,8.5-6.3,13.4-8.4c0.3-0.1,0.7,0,1.1,0c0,0.3,0,0.5,0,0.8c-0.3,1.8-1.5,2.8-3,3.8c-1.3,0.9-2.7,2-3.5,3.3
	c-1.1,1.8-2.5,3-4.6,3.3c-2.7,0.4-4.5,2-6.1,4c-1.1,1.3-2.6,2.3-3.9,3.4c0,0,0,0.1,0,0.1C109.9,80.7,109.8,80.8,109.7,80.9
	C109.7,80.9,109.7,80.9,109.7,80.9C109.7,80.9,109.7,80.9,109.7,80.9z M117.6,65.7c1.4-3,2.8-6,4.3-9c0.1-0.2,0.6-0.4,0.7-0.3
	c1.4,1.2,2.8,2.5,4.3,3.9c-0.7,0.8-1,1.2-1.4,1.5c-2.3,1.5-4.7,3-7,4.5c-0.2,0.1-0.6,0.2-0.7,0.1C117.7,66.3,117.6,65.9,117.6,65.7z
	 M111.6,81.7c1.5-1.3,2.7-2.9,4.2-4.1c1.4-1.1,2.9-2.2,4.5-2.7c2.5-0.7,4.3-1.8,5.5-4.1c0.3-0.5,0.5-1.1,0.9-1.4
	c0.6-0.4,1.5-0.9,2.2-0.8c0.3,0,0.8,1.1,0.9,1.7c0.2,1.8,0.3,3.6,0.4,5.4c0.2,7.3-3,12.8-8.7,17.2c-1.4,1.1-2.3,1-3.4-0.4
	c-2.1-2.6-4.3-5.2-6.6-7.5C110.1,83.6,110.3,82.9,111.6,81.7z M130.8,56.5c0.1,0.8-0.1,1.7-0.4,2.4c-0.5,1.4-1.4,1.5-2.4,0.5
	c-1.6-1.7-3.4-3.3-4.9-5.1c-1.8-2.2-3.4-4.4-2.6-7.8c1.1-4.5-1.9-7.7-6.3-7.4c-0.4,0-0.8,0.1-1.2,0c-0.2,0-0.6-0.2-0.7-0.4
	c0-0.4,0-0.9,0.2-1.1c2.2-2.3,6.1-2.6,8.3-0.4c2.6,2.7,5.2,5.4,8.7,7.1c1.4,0.7,2.2,2.2,1.8,3.9C130.6,51,130.4,53.7,130.8,56.5z
	 M114.1,40.8c2.9-0.4,4.9,1.7,4.9,5c-0.1,0.5-0.5,1.2-0.6,2c-0.1,0.9-0.1,2,0.3,2.6c2,3,1.7,5.8-0.1,8.6c-0.3,0.6-0.8,1-1.3,1.5
	c-0.2-0.6-0.5-1.2-0.5-1.8c-0.1-4.7-1.7-8.8-5.5-11.7c-2-1.6-4.6-2.4-6.9-3.6c-0.9-0.5-2.1-0.9-2.5-1.7c-0.4-1,1.3-2.9,2.8-3.2
	c1.8-0.3,3.6-0.3,5.2,1C111,40.6,112.4,41,114.1,40.8z M83.8,55.3c0.4-5.3,2.7-8.2,7.4-9.5c0.3-0.1,0.5-0.2,0.8-0.2
	c0.2,0.1,0.4,0.2,0.7,0.3c-0.1,0.2-0.2,0.5-0.4,0.7c-0.7,0.7-1.4,1.3-2,2.1c-1.7,2.5-2.5,5.2-1.3,8.3c1.4,3.5,3.3,6.8,6.4,9.1
	c2.7,2,5.3,4.1,8,6.1c2.5,1.9,3.8,4.4,4.1,7.5c0,0.4-0.2,0.8-0.4,1.1c-0.4-0.2-0.9-0.2-1.1-0.5c-0.5-0.6-1-1.4-1.3-2.1
	c-2.1-4.3-5.6-7.1-10.3-7.6c-3.8-0.4-5.7-2.3-6.6-5.9c-0.3-1-0.8-2.3-1.6-2.8C83.6,60.3,83.6,57.9,83.8,55.3z M84.7,65.3
	c0.1-0.3,0.4-0.6,0.7-1.1c0.3,0.5,0.7,0.7,0.8,1.1c1.1,4.5,4,6.5,8.6,7.2c3,0.4,5.9,1.9,7.5,4.9c0.2,0.3,0.2,0.7,0.3,1.1
	c-0.3,0-0.6,0.1-0.8,0c-4.9-2.5-10.3-2.3-15.6-2.2c-3.2,0-3.4-0.1-3.1-3.3C83.2,70.4,84,67.9,84.7,65.3z M96.4,78.6
	c0.9,0.1,1.7,0.8,2.5,1.2c0,0,0.1,0,0.1,0c0,0,0,0,0,0.1c0.5,0,1.1-0.1,1.6,0.1c6.9,2.9,12.2,7.7,16.3,13.8c0.2,0.3,0.2,0.8,0.3,1.1
	c-0.4,0-0.7,0-1.1-0.1c-3.8-1.1-7.4-2.5-9.2-6.5c-0.3-0.5-1-1-1.6-1.2c-3.3-1.4-5.3-3.9-6.2-7.3c0,0,0,0-0.1,0c0,0,0,0,0,0
	c-1.1,0.4-2.4,0.6-3.3,1.3C93,83.3,90,83.5,86.9,83c-2.9-0.5-5.6-1.5-8.4-2.4c-0.3-0.1-0.6-0.4-0.8-0.7c0.3-0.3,0.6-0.7,0.9-0.8
	C84.5,77.6,90.4,77.6,96.4,78.6z M72,99.5c0.4,0.3,0.7,0.7,1.1,1.1c-0.4,0.3-0.8,0.8-1.3,0.9c-3.1,0.6-6.3,1.1-10,1.8
	c-0.2-0.1-1.1-0.1-1.8-0.5c-4.6-2.7-9.6-4.4-14.9-5.2c-0.4-0.1-0.7-0.3-1.1-0.4c0.2-0.3,0.4-0.8,0.7-1c4-2.3,8.1-4.5,12.7-5.2
	c1.3-0.2,3.1-0.1,3.9,0.7C64.4,94.8,68.3,97.1,72,99.5z M53.8,89.8c-5.7,1.7-10.7,4.9-15.3,8.5c-0.6,0.5-1.5,0.6-2.1,0.8
	c-0.9-0.2-1.6-0.3-2.2-0.6c-1.2-0.4-2.3-1-3.4-1.5c1.1-0.5,2.2-0.8,3.3-1.4c3.4-1.9,6.9-3.8,10-6c3.6-2.6,6.3-3,9.9-0.8
	c0.2,0.1,0.4,0.4,0.6,0.6C54.3,89.6,54.1,89.8,53.8,89.8z M38,101.1c1.7-1.7,3.7-2.3,6.1-2c4.6,0.6,9,1.9,13.1,4
	c0.3,0.2,0.8,0.5,0.9,0.8c0.1,0.2-0.3,0.8-0.6,0.9c-4.2,1.5-8.4,3-12.6,4.5c-0.4,0.1-0.8,0.2-1.1,0.2c-1-0.2-1.8-0.5-2.6-0.5
	c-2.8-0.2-5.5-0.3-8.3-0.4c-0.5,0-1,0-1.5-0.1c0.3-0.5,0.4-1,0.8-1.4C34.1,105.1,36,103.1,38,101.1z M39.6,110.3
	c0.2,0.1,0.6,0.4,0.6,0.5c-0.1,0.3-0.3,0.7-0.6,0.8c-4.9,2-9.7,3.9-14.6,5.9c0,0,0,0,0,0c0,0,0,0-0.1,0c-0.1,0.1-0.2,0.2-0.3,0.3
	c0-0.1,0-0.2,0.1-0.2c0.1,0,0.1-0.1,0.2-0.1c0,0,0,0,0,0c0,0,0,0,0,0C27.6,111.1,33.2,108.3,39.6,110.3z M34.7,122.4
	c-0.4,0.3-1,0.7-1.4,0.7c-2.7-0.6-5.4-1.3-8-2.1c-0.8-0.2-0.6-0.8,0-1.1c5.2-2.2,10.4-4.4,15.6-6.5c0,0,0,0,0,0c0,0,0,0,0,0
	c0.1-0.1,0.2-0.2,0.3-0.3c0,0.1,0,0.2-0.1,0.2c-0.1,0.1-0.2,0.1-0.3,0.1c0,0,0,0,0,0c0,0,0,0,0,0C39.9,117.1,37.4,119.9,34.7,122.4z
	 M47,125c-1.3,0-2.3,0.1-3.3,0c-2.2-0.3-4.4-0.8-6.6-1.2c0.2-2.4,2.4-3.6,3.3-5.5c0.1-0.2,0.3-0.5,0.4-0.7c2.1-5.7,6.9-8,12.3-9.5
	c2-0.5,4-1,5.9-1.6c-0.4,2.1-0.7,4.3-1.4,6.3c-0.9,2.6-2.1,5.2-3.2,7.7C53,123.8,50.7,126.1,47,125z M56.2,124.3
	c-1.1,0.1-1.7-0.3-1.1-1.4c2.8-4.8,4.6-10.1,6.1-15.5c0.4-1.5,1.2-2.5,2.8-2.8c1.4-0.3,2.7-0.7,4.1-1c0.2,0,0.5,0.1,0.7,0.1
	c-0.1,0.3-0.2,0.7-0.4,1c-1.1,2.1-2.3,4.1-3.3,6.2c-1.2,2.7-0.8,5.3,1.3,7.3c1.5,1.3,0.9,2-0.5,2.7C63,122.6,59.8,123.9,56.2,124.3z
	 M82.1,127.6c-4.8,8.6-11.4,15.1-21.5,17.2c-4.3,0.9-4.6,0.7-4.7-3.5c0-0.6,0-1.1,0-1.7c-0.1,0-0.3-0.1-0.4-0.1
	c0.7-2.8,1.3-5.6,2.1-8.4c1-3.7,3-6.5,7-7.5c0.8-0.2,1.5-0.7,2.2-1.1c1.7-0.8,3-2.7,5.2-2.2c3.1,0.7,6.4,0.9,9.1,2.9
	C83.2,124.5,83.4,125.3,82.1,127.6z M110.2,127.8c-2.6,2.7-3.8,2.9-7,1.1c-2.9-1.6-5.7-2.4-9.1-1.5c-3.1,0.8-6.2-0.7-8.4-2.9
	c-3.9-4-8.7-5.4-13.9-6.1c-0.7-0.1-1.4-0.2-2-0.4c-2.6-0.9-3.8-2.9-3.2-5.6c0.6-3.3,2.4-5.9,4.9-8c3.4-2.8,3.7-2.8,7.6-0.6
	c1.8,1,3.8,1.9,5.7,2.5c2.7,0.9,4.6,0.1,6-2.4c0.8-1.4,1.4-3,1.9-4.6c0.9-2.9,0.9-2.9,3.6-1.9c3,1.1,6.1,2,9.4,1.9
	c2.2-0.1,2.2,0.1,1.9,2.6c-0.6,5.4,1.7,8.3,7.1,8.3c3.8,0,7,1.6,10.5,2.7c1.4,0.4,1.8,1.4,1,2.6c-0.8,1.3-1.8,2.5-2.9,3.5
	c-1.1,1-2.6,1.7-3.9,2.4C115.9,122.9,112.8,125,110.2,127.8z M123.7,132.2c-0.4-0.4-0.8-0.7-1.1-1.2c-0.5-0.7-1-1.4-1.4-2.1
	c-2.9-4.8-2.8-5.1,1.9-7.9c2.2-1.3,4-2.9,4.8-5.6c0.2-0.8,0.4-2.3,1.8-1.6c0.9,0.4,1.5,1.5,2.2,2.3c-0.4,0.8-0.6,1.3-1,1.7
	c-2.7,4-4.6,8.3-6.1,12.8C124.7,131.3,124.1,131.7,123.7,132.2z M131,139.4c-0.5-0.3-0.9-0.6-1.4-1c-4.2-3.3-4.4-3.8-2.5-8.8
	c1.3-3.4,3.1-6.5,4.6-9.8c0.3-0.6,0.6-1.3,0.6-1.4c1.1,0.2,1.3,0.2,1.3,0.3c1.5,2.1,3.1,4.2,4.5,6.4c0.2,0.3-0.2,1-0.5,1.5
	c-2.2,3.6-3.3,7.6-4.3,11.7C133,140.3,132.7,140.4,131,139.4z M143.8,142c-0.5,3-0.5,3-3.5,2c-5.6-1.8-5.9-2.3-4.4-8.1
	c0.6-2.3,1.5-4.5,2.4-6.6c0.8-1.7,1.7-1.8,2.7-0.3c1.3,1.8,2.4,3.8,3.5,5.7c0.3,0.6,0.3,1.3,0.4,1.4
	C144.4,138.5,144.1,140.2,143.8,142z M148.7,145.9c-0.8-0.3-2-0.3-2.5-0.9c-0.6-0.6-0.6-1.8-0.9-2.6c0.2-0.6,0.2-1.2,0.4-1.7
	c0.2-0.6,0.6-1.1,0.8-1.6c0.3,0.4,0.8,0.8,1,1.3c0.5,1.1,1.1,2.2,1.4,3.4C149.2,144.4,148.8,145.2,148.7,145.9z M151.3,142.3
	c-0.1,0.2-0.4,0.4-0.5,0.6c-0.2-0.2-0.4-0.4-0.4-0.6c-0.6-1.5-1.1-3-1.7-4.5c0,0,0,0-0.1,0c-0.1-0.1-0.2-0.1-0.3-0.2
	c0.1,0.1,0.2,0.1,0.4,0.2c0,0,0,0.1,0,0.1C151.8,138.9,152.4,140,151.3,142.3z M152.8,133.1c0,0.7,0,1.1-0.1,1.5
	c-0.2,2-0.3,2-2.2,1.5c-3.1-0.8-5.1-2.6-6.3-5.5c-0.5-1.2-1.1-2.4-1.7-3.6c1.3,0.2,2.7,0.2,4,0.5c1.3,0.3,2.6,0.8,3.9,1.4
	C152.1,130,153.3,131.3,152.8,133.1z M152.7,127.2c-0.1,0.3-0.9,0.6-1.1,0.5c-3.2-1.6-6.5-2.4-10-2.8c-0.8-0.1-1.6-0.9-2.2-1.6
	c-1.1-1.3-2-2.7-2.9-4.1c-0.4-0.5-0.6-1.2-0.8-1.8c0.6-0.2,1.2-0.5,1.9-0.6c0.5-0.1,1.1,0,1.7,0c0-0.1,0-0.2,0.1-0.3
	c3,0.6,6,1,9,1.9C152.4,119.7,154,122.9,152.7,127.2z M161.2,116.8c-0.4,1.2-1.2,1.3-2.3,0.8c-4.9-2.1-8.9-5.3-11.7-9.8
	c-1-1.7-1.4-3.3-0.3-5.1c0.7-1.1,1.2-2.2,1.8-3.3c0.7-1.5,1.5-1.3,2.9-0.6c3.5,1.7,7.1,3.1,10.7,4.6c1.8,0.7,2.1,1.1,2.4,3.2
	C163.6,110,162.4,113.4,161.2,116.8z M168.9,102.5c-6.6-0.2-6.4,0.1-8.3-7.3c-0.3-1.3-0.4-2.8-0.4-4.1c0-0.9,0.1-1.8,0.2-2.7
	c0.8,0.2,1.6,0.3,2.4,0.5c4.9,1.2,7.5,4.5,9.1,9.2C173.4,102.8,173.8,102.6,168.9,102.5z M181.5,101.3c-1.3,0.4-2.7,0.6-4.7,1
	c-0.3-0.2-1.2-0.5-1.7-1.1c-0.6-0.7-1-1.7-1.4-2.6c-0.4-0.9-0.7-1.8-1.1-2.7s-0.7-1.8-1-2.7l0,0v0c0.3,0.1,0.5,0.1,0.8,0.2
	c0.5,0.1,1.1,0.2,1.6,0.3c1.3,0.2,2.7,0.5,3.7,1.2c1.9,1.2,3.2,3.3,4.7,5C182.6,100,182,101.1,181.5,101.3z M189.4,98.2
	c-2.3,1.5-4,1.8-5.2,0.7c-0.4-0.4-0.8-0.8-1.1-1.2c-0.2-0.3-0.3-0.7-0.5-1.1c0.2,0,0.5-0.1,0.7-0.1c0.2,0,0.5-0.1,0.7-0.1
	c0.4,0,0.8,0.1,1,0.1c0.6,0,1.1,0,1.5,0.1c1.2,0.3,2.3,0.7,3.5,1.1C189.7,97.9,189.6,98.1,189.4,98.2z M190.5,90.8
	c0.6,0.7,1,1.6,1.4,2.5c0.7,1.6,0.2,2.2-2.3,2.2c-1.9-0.4-4.4-0.9-7-1.6c-0.1,0-0.3-1-0.2-1.1c2.1-1,4.2-2,6.4-2.8
	C189.3,90,190.2,90.4,190.5,90.8z M186.4,84.4c2.8,3.5,2.8,3.4-1.2,5.2c-1.4,0.6-2.7,1.4-4.1,2.1c-1,0.5-2.1,1.4-2.9,1.3
	c-2.2-0.4-4.2-1.4-6.3-2.2c-0.3-0.1-0.5-1.1-0.3-1.4c2.9-3.8,7.1-5.7,11.4-7.8c0.4,0.2,1,0.4,1.3,0.7
	C185.1,82.9,185.8,83.6,186.4,84.4z M180.5,66c2.5,1.1,5,2.1,7.5,3.4c1,0.5,1.8,1.3,2.7,1.9c1.2,0.9,1.3,1.7,0.1,2.6
	c-1.3,0.9-2.5,1.8-3.8,2.5c-2.3,1.3-4.5,1.8-6.8-0.5c-1.1-1.2-2.8-1.8-4.3-2.7c-0.6-0.4-1.2-0.7-0.6-1.6c1.1-1.5,2-3,3.1-4.5
	C178.9,66.8,179.6,66.6,180.5,66z M181.7,51.9c-0.5,2-1,4-1.6,6c-1.3,4.6-0.5,4.3-5.5,2.4c-0.3-0.1-0.5-0.2-0.7-0.4
	c-1.8-1.3-3.6-2.6-5.4-3.8c1.9-1,3.7-2.1,5.7-3c1.9-0.9,3.8-1.7,5.7-2.4C181.1,50.2,182,50.3,181.7,51.9z M178.8,47.9
	c0.2,0.1,0.2,0.4,0.4,0.7c-0.3,0.3-0.6,0.6-0.9,0.8c-2.9,1.3-5.8,2.6-8.8,3.9c-0.3,0.1-0.9,0.2-1.1,0c-0.2-0.2-0.2-0.7-0.1-1.1
	c0.1-0.5,0.4-1.1,0.6-1.6C170.7,45.9,174.7,44.8,178.8,47.9z M161,45.3c0.3-0.2,0.8-0.1,1.2,0c2.2,0.1,4.4,0.2,6.6,0.4
	c-0.7,1.9-1.7,3.7-2.1,5.6c-0.7,3-2.5,4.8-5.3,5.8c-1.2,0.4-2.2,1.1-3.4,1.7c-2.9,1.5-2.9,1.5-2.8-2.7c0.2-2.5,1.4-5.9,3.1-9.1
	C158.9,46.1,160.1,45.8,161,45.3z M149.8,47.7c1.9-0.6,3.7-1.2,5.6-1.7c1.3-0.4,1.5,0.1,1,1.2c-0.7,1.5-1.4,3.1-1.8,4.7
	c-0.5,2-1,4.1-0.9,6.2c0.1,2.5-0.9,3.9-3.1,4.8c-1.2,0.4-2.3,1.1-3.6,1.8c-0.1-0.5-0.3-0.8-0.2-1.1c0.3-0.8,0.6-1.6,1.1-2.3
	c2.5-3.4,2.6-7,0.8-10.6C147.8,49,148.4,48.2,149.8,47.7z M144,43c3.5-4.8,7.2-9.4,12.8-11.9c0,0,0.1-0.1,0.1-0.1
	c0.8-0.6,1.7-1.1,2.5-1.7c0.1-0.1,0.2-0.2,0.2-0.3c-0.1,0.1-0.1,0.2-0.2,0.3c-0.8,0.6-1.7,1.1-2.5,1.7c-0.1,0-0.1,0.1-0.2,0.1
	c-2.6,2.8-5.3,5.5-7.9,8.3c-1.3,1.4-2.4,3-3.7,4.5c-0.2,0.2-0.7,0.1-1.1,0.2C144.1,43.8,143.9,43.3,144,43z M140.6,38.6
	c0.3,1.1,0.1,2.3,0.5,3.3c0.6,1.5,1.4,3,2.3,4.3c0.9,1.4,2.2,2.6,3,4c2,3.2,2.5,6.4,0.3,9.8c-2.2,3.3-2.6,7-2.3,10.8
	c0.2,2.6,0.2,5.3-1,7.8c-1.9,3.7-5.5,5.2-9.5,3.9c-1.4-0.4-2.2-1-2-2.6c0.1-1.2,0-2.5,0-3.8c0.1,0,0.2,0,0.4,0
	c-0.3-2.3-0.7-4.7-0.9-7c-0.1-1.3,0.2-2.7,0.7-3.9c0.8-2.2,1.5-4.2,0.8-6.8c-0.7-2.7-0.8-5.7-0.2-8.7c0.8-4.1-0.1-5.9-3.7-7.9
	c-0.5-0.3-1-0.5-1.5-0.8c-1.3-0.7-3.3-1.2-3-3c0.3-1.3,1.7-2.6,2.9-3.3c1.4-0.9,3.1-1.4,4.7-1.7C136.7,32.1,139.5,34,140.6,38.6z
	 M135.9,25c0,0.4,0,0.8,0,1.3c0,0,0,0,0,0c0,0.7,0,1.4,0,2.1c-0.1,1.6-0.7,2.6-2.5,2.7c-3.7,0.3-7,1.6-9.8,4.2
	c-1.9,1.8-2.8-0.9-4.3-1.2c-0.4-0.1-0.8-1.6-0.7-2.4c0.3-1.7,1.2-2.9,3.2-3.3c4.2-0.9,8.3-2.2,12-4.6
	C135.5,22.7,135.8,22.9,135.9,25z M133.9,14.8c0.5,1.4,0.7,2.9,1.2,5c-0.4,0.6-0.9,1.8-1.7,2.2c-3.6,1.7-7.3,3.2-11.1,4.7
	c-0.9,0.4-1.7-0.2-1.2-1.3c1.3-2.8,2.2-5.9,4.2-8c1.8-1.8,4.8-2.4,7.4-3.4C133.1,13.8,133.8,14.4,133.9,14.8z M132.1,6.5
	c0.3,1.1,0.6,2.2,1.1,3.7c-0.3,0.5-0.5,1.4-1,1.7c-1.2,0.6-2.5,0.9-3.8,1.4c0-0.3-0.3-0.8-0.1-1c0.6-1.1,1.2-2.2,1.9-3.2
	C130.8,8.1,131.4,7.3,132.1,6.5z M124.9,6.1c0.2-0.2,0.5-0.2,0.8-0.3c1.6-0.4,3.1-0.8,4.7-1.3l0,0h0c-0.7,1.4-1.4,2.8-2.1,4.2
	c-0.1,0.1-0.1,0.2-0.2,0.3c-0.9,1.2-1.7,2.4-2.6,3.6c-0.6-1.7-1.1-3.3-1.8-5.1C124.1,7.1,124.4,6.5,124.9,6.1z M114.3,12.5
	c0.4-0.5,1-1,1.6-1.3c1.9-1.1,3.8-2.2,5.7-3.3c0.8,2.3,1.6,4.6,2.3,6.9c0.1,0.5-0.1,1.1-0.3,1.6c-1.4,2.9-2.8,5.8-4.3,8.6
	c-0.2,0.3-1.4,0.5-1.5,0.3c-2.4-3-3.6-6.5-4.7-10.6C113.4,14.1,113.7,13.2,114.3,12.5z M108.5,18.8c0.7-1,1.5-2,2.4-3.2
	c0.3,0.4,0.6,0.7,0.7,0.9c1.8,3.6,3.4,7.3,5.3,10.9c0.9,1.8,0.3,3.3-0.3,4.8c-0.2,0.6-0.7,1.1-1.1,1.6c-0.3-0.5-0.6-1.1-1-1.6
	c-1.2-1.5-2.5-3-3.7-4.4c-0.4-0.4-1-0.6-1.4-0.9C106.8,24.4,106.5,21.7,108.5,18.8z M96.4,7.7c0.4-0.7,1-1.2,1.6-1.9
	c0.8,0.4,1.5,0.6,2,1c1.5,1.3,3,2.5,4.3,4c3.5,3.9,3.6,4.8,1.1,9.6c-0.6,1.2-1.4,2.5-1.8,3.8c-1,3.1-1.8,2.7-4.3,1.8
	c-5.6-1.9-5.5-1.9-5.6-7.9C93.7,14.4,94.4,10.9,96.4,7.7z M106,25.4c0,0.1-0.2,0.3-0.2,0.5c0,0,0,0,0,0c0,0,0,0,0,0
	c-0.2-0.1-0.4-0.1-0.5-0.2c0,0-0.1-0.1-0.1-0.1c-0.1-0.2,0.1-0.4,0.2-0.7c0.2,0.1,0.5,0.2,0.6,0.4C106,25.3,106,25.3,106,25.4z
	 M72.5,32.4C72.5,32.4,72.5,32.4,72.5,32.4C72.5,32.4,72.5,32.4,72.5,32.4c0.1,0.1,0.2,0.2,0.1,0.4c0,0.1-0.1,0.2-0.2,0.3
	C72.4,32.9,72.5,32.6,72.5,32.4z M74.3,34.6c4.2-2,8-4.6,11.2-7.9c1.6-1.6,3.8-1.8,5.9-1.3c1.6,0.3,3.3,0.8,4.9,1.3
	c2.9,1,5.6,2.1,8.9,1.4c2.5-0.5,5.2,0.9,6.9,3.2c1.9,2.7,0.7,5.4-2.6,5.6c-2,0.1-4.1,0.3-5.7-1.7c-0.8-1-2.7-1.2-4.1-1.5
	c-2-0.4-4.2-0.4-6.2-0.8c-4.4-0.8-6.8,0.3-8.9,4.3c-1,1.8-2.1,3.6-3.1,5.4c-1.3,2.4-1.5,4.9-0.2,7.2c0.9,1.7,1,3.4,0.9,5.2
	c-0.1,2.2-0.2,4.4,1,6.5c0.4,0.7,0.2,1.8,0.1,2.7c-0.3,1.4-0.8,2.7-1.3,4c-0.9,2.4-1.4,2.6-3,0.8c-1.8-2.1-3.7-4.3-5.1-6.6
	c-1.1-1.9-1.5-4.1-2.1-5.8c0.5-2.8,0.8-5,1.4-7.2c0.8-3,0.4-5.8-0.7-8.6C71.2,37.8,71.5,35.9,74.3,34.6z M70.9,43.5
	c0.1,0.2,0.2,0.4,0.3,0.6c0.3,0.6,0.6,1.2,0.8,1.6c-0.1,0.8-0.1,1.3-0.2,1.6c-0.4,0.8-0.9,1.6-1.4,2.4c-0.2-1-0.5-2-0.7-3
	c0-0.2,0.1-0.6,0.2-0.8C70.1,45.1,70.5,44.3,70.9,43.5L70.9,43.5L70.9,43.5z M62.8,26.5c0.2-2.1,0.4-2.3,2.1-1.3
	c0.8,0.5,1.6,1.1,2.5,1.6c2.3,1.3,3.5,3.1,3.2,5.9c-0.7,4-1.4,7.9-2.2,11.9c-0.2,1-0.8,1.5-1.7,0.4c-0.5-0.7-1-1.4-1.6-1.9
	c-3.9-3-5.1-6.5-2.9-11.2C63,30.4,62.7,28.3,62.8,26.5z M51.6,20.5c1.8,0.5,3.5,0.9,5.3,1.4c4.2,1.3,4.3,1.5,4.5,5.9
	c-0.6,2.3-1.1,4.6-1.7,6.9c-0.3,1.1-1,1.2-1.8,0.4c-0.6-0.6-1.1-1.3-1.8-1.7c-4.7-2.5-5.5-6.9-6-11.6C49.8,20.1,50.5,20.2,51.6,20.5
	z M42.5,19.3c5.1,0.1,6.4,1.4,6.6,6.2c0,0.3-0.1,0.5-0.2,0.8c-0.3-0.1-0.6-0.1-0.8-0.3c-2-1.6-3.9-3.2-5.8-4.8
	c-0.5-0.4-1-0.9-1.5-1.4C41.5,19.6,42.2,19.4,42.5,19.3z M38.5,22.4c0.2-1.2,0.8-1.4,1.6-0.7c2,1.7,4,3.3,6,5.1
	c0.4,0.3,0.6,0.9,0.9,1.3c-0.5,0.2-1,0.4-1.5,0.5c-0.5,0.1-1.1,0-2,0C39.5,28.5,38,26.7,38.5,22.4z M40.3,33.8
	c-0.2-0.9-0.5-1.9-0.6-2.8c0-0.3,0.5-0.9,0.8-0.9c2.6,0,5.3,0,7.9,0.2c0.9,0.1,1.9,0.4,2.7,0.9c0.9,0.6,1.7,1.4,2.5,2.2
	c1.2,1.3,2.4,2.6,3.6,4c-1.8,0.6-3.6,1.4-5.4,1.8c-1.3,0.3-2.8,0.2-4.2,0.3C41.9,39.4,41.7,39.3,40.3,33.8z M47.7,48.7
	c-0.4-0.7-1.1-1.3-1.5-2c-1-1.8-1.8-3.6-2.7-5.4c1.8-0.1,3.6-0.1,5.4-0.3c2.6-0.4,5.2-0.8,7.8-1.4c2-0.5,3.4-0.1,4.7,1.6
	c1.3,1.8,3,3.3,4.4,5.1c1.2,1.5,1.1,2.1-0.7,2.5c-4,1-8.1,1.7-12.2,2.5C50.5,51.4,48.9,50.6,47.7,48.7z M53.4,53.3
	c0.6-0.3,1.2-0.6,1.8-0.8c0.7-0.2,1.4-0.3,2.2-0.4c0.4,0.1,1,0.2,1.5,0.3c-0.3,0.4-0.6,1-1,1.2c-0.7,0.4-1.5,0.8-2.3,0.8
	C54.8,54.3,54.1,53.7,53.4,53.3z M45.2,71.4c0.6,0,1.1,0,2.1,0c0.7,0.1,1.8,0,2.9,0.2c4.5,0.7,4.2,0.8,5.1,5.4
	c0.7,3.5,2.1,6.9,3.2,10.4c0.1,0.4,0.2,0.8,0.2,1.1c-0.4,0-0.8,0.1-1.1,0c-2.5-0.9-5-1.9-7.5-2.7c-1.6-0.5-2.2-1.3-2.7-2.8
	c-1.1-3.2-2.4-6.3-3.7-9.3C42.8,71.5,42.8,71.5,45.2,71.4z M30.5,73.4c2.7-0.7,5.4-1.1,8.2-1.6c0.6-0.1,1.6-0.1,1.9,0.2
	c2.9,3.4,4,7.5,5.5,11.9c-0.5,0.2-0.9,0.7-1.3,0.6c-3.8-0.6-7.7-1.3-11.4-2.1c-0.9-0.2-1.8-1.2-2.4-2c-0.8-1-1.2-2.2-1.8-3.3
	C27.1,74.3,27.1,74.2,30.5,73.4z M16.2,79.2c2-1,3.9-2,6-2.8c2.9-1.1,6.7,1.4,6.8,4.5c0,0.3-0.8,0.7-1,0.9
	c-4.1-0.4-7.8-0.8-11.5-1.2c-0.3,0-0.7-0.3-1-0.4C15.7,79.8,15.9,79.4,16.2,79.2z M13.8,82.8c0.1-0.2,0.4-0.4,0.6-0.4
	c0.8,0,1.7,0,2.3,0c3.6,0.3,6.9,0.6,10.2,1c0.3,0,0.5,0.2,0.8,0.3c-0.2,0.3-0.3,0.9-0.6,1c-3.1,0.9-6.1,1.8-9.2,2.6
	C17,87.3,13.6,83.5,13.8,82.8z M19.3,89.2c1.4-0.5,2.7-1,4.1-1.6c2.2-0.9,4.4-1.9,6.5-2.8c0.9-0.4,1.8-0.7,2.4-0.9
	c3.9,0.7,7.5,1.4,11.1,2.1c0.8,0.2,1.7,0.5,0.5,1.6c-4.2,3.6-8.8,6.4-14.3,7.6c-1.7,0.3-3,0.2-4.3-0.8c-0.9-0.7-1.8-1.3-2.7-2
	C21.4,91.4,20.4,90.3,19.3,89.2z M4.2,105.8c1.9-1.8,3.6-4,5.9-5.3c3.5-2,7.3-3.5,11-4.9c0.9-0.3,2.2-0.1,3.1,0.3
	c3.1,1.3,6,2.8,9.1,4.2c1.3,0.6,1.9,1.1,0.7,2.4c-2.1,2.4-4.1,5-6.2,7.3c-0.6,0.7-1.6,1.2-2.5,1.4c-2.3,0.5-4.7,0.9-6.6,1.2
	c-5.2-0.5-9.7-1.5-13.9-4C3.6,107.6,3.1,106.8,4.2,105.8z"/>
</svg>
