<?xml version="1.0" encoding="utf-8"?>
<!-- Generator: Adobe Illustrator 25.2.3, SVG Export Plug-In . SVG Version: 6.00 Build 0)  -->
<svg version="1.1" id="Layer_1" xmlns="http://www.w3.org/2000/svg" xmlns:xlink="http://www.w3.org/1999/xlink" x="0px" y="0px"
	 viewBox="0 0 42.1 10" style="enable-background:new 0 0 42.1 10;" xml:space="preserve">
<g>
	<path d="M5.5,3.3l1.6-2h0.2L7.2,2.9h1.2v0.7H7.2v3.9L7.9,8l0.4-0.3l0.1,0.2l-1.3,1C6.7,8.4,6.2,8.1,5.6,8V7.9
		c0.2-0.1,0.3-0.2,0.3-0.3C6,7.4,6,7.2,6,6.9V3.5H5.5V3.3z"/>
	<path d="M13.2,2.9L13.4,3c-0.2,0.3-0.3,0.6-0.4,0.8s-0.1,0.4-0.1,0.7v2.5c0,0.4,0,0.7,0.1,0.8s0.1,0.2,0.2,0.2c0,0,0.1,0,0.1,0
		c0,0,0.1-0.1,0.3-0.2l0.1,0.2l-1.2,1.1c-0.3-0.2-0.5-0.4-0.6-0.6s-0.2-0.4-0.2-0.8L9.9,8.9c-0.7-0.5-1-1.1-1-1.6
		c0-0.4,0.1-0.7,0.2-1c0.2-0.4,0.5-0.9,1-1.4L9.4,3.3l0.1-0.2c0.2,0,0.3,0,0.3,0c0.5,0,0.9-0.2,1.2-0.5C11.4,2.8,11.7,2.9,12,3
		c0.3,0.1,0.6,0.2,0.8,0.2c0.1,0,0.1,0,0.2,0S13.1,3,13.2,2.9z M11.7,4l-2-0.6l0.7,1.5l1.3,0.6V4z M11.7,5.7l-1.4-0.7
		C10.1,5.6,10,6,10,6.3c0,0.6,0.3,1.2,0.9,1.6l0.9-0.7V5.7z"/>
	<path d="M14.2,3.3l1.6-2H16L16,2.9h1.2v0.7H16v3.9L16.6,8L17,7.7l0.1,0.2l-1.3,1c-0.4-0.4-0.9-0.8-1.5-0.9V7.9
		c0.2-0.1,0.3-0.2,0.3-0.3c0.1-0.1,0.1-0.4,0.1-0.6V3.5h-0.6V3.3z"/>
	<path d="M17.6,3.3l1.6-2h0.2l-0.1,1.6h1.2v0.7h-1.2v3.9L20,8l0.4-0.3l0.1,0.2l-1.3,1c-0.4-0.4-0.9-0.8-1.5-0.9V7.9
		c0.2-0.1,0.3-0.2,0.3-0.3c0.1-0.1,0.1-0.4,0.1-0.6V3.5h-0.6V3.3z"/>
	<path d="M25.4,3.5v4.4c-0.6,0.2-1,0.4-1.3,0.6c-0.2,0.1-0.4,0.3-0.6,0.4c-0.6-0.3-1-0.6-1.4-0.7c-0.3-0.1-0.6-0.2-1-0.2l-0.1-0.1
		c0.1-0.1,0.2-0.2,0.3-0.3c0.1-0.1,0.1-0.4,0.1-0.7V3.6c0.7-0.2,1.3-0.6,1.8-1C23.9,3,24.6,3.3,25.4,3.5z M22.7,7.3l1.5,0.6V4.2
		c-0.5-0.2-0.8-0.4-1-0.4c-0.1-0.1-0.3-0.1-0.5-0.1V7.3z"/>
	<path d="M30.8,3.5v4.4c-0.6,0.2-1,0.4-1.3,0.6c-0.2,0.1-0.4,0.3-0.6,0.4c-0.6-0.3-1-0.6-1.4-0.7c-0.3-0.1-0.6-0.2-1-0.2l-0.1-0.1
		c0.1-0.1,0.2-0.2,0.3-0.3c0.1-0.1,0.1-0.4,0.1-0.7V3.6c0.7-0.2,1.3-0.6,1.8-1C29.2,3,29.9,3.3,30.8,3.5z M28,7.3l1.5,0.6V4.2
		c-0.5-0.2-0.8-0.4-1-0.4c-0.1-0.1-0.3-0.1-0.5-0.1V7.3z"/>
	<path d="M34.9,4.8l1.4,0.7V8c-0.3,0-0.6,0.1-0.9,0.2c-0.3,0.1-0.6,0.3-0.9,0.7c-0.3-0.2-0.5-0.3-0.8-0.4s-0.4-0.1-0.7-0.1
		c-0.4,0-0.7,0.1-1,0.3c-0.1,0.1-0.2,0.1-0.2,0.1c0,0-0.1,0-0.1-0.1s-0.1-0.1-0.1-0.1c0,0,0-0.1,0.1-0.2c0,0,0.1-0.1,0.2-0.3
		l0.5-0.7l0.8-1L32,5.9V3.7c0.4-0.1,0.7-0.3,0.9-0.4c0.2-0.2,0.4-0.4,0.7-0.6c0.5,0.2,0.9,0.4,1.2,0.4c0.2,0.1,0.4,0.1,0.6,0.1
		c0.2,0,0.4,0,0.5-0.1c0.1-0.1,0.2-0.2,0.2-0.3c0-0.1,0-0.1-0.1-0.2c-0.2-0.1-0.2-0.3-0.2-0.4c0-0.1,0-0.2,0.1-0.3s0.1-0.1,0.2-0.1
		c0.1,0,0.2,0,0.3,0.1s0.1,0.2,0.1,0.4c0,0.2,0,0.3-0.1,0.5c-0.1,0.2-0.2,0.4-0.4,0.6L34.9,4.8z M34.2,5.7l-1.4,1.9
		c0.2-0.1,0.3-0.1,0.5-0.1s0.3,0,0.4,0c0.4,0,0.9,0.1,1.4,0.4V6.2L34.2,5.7z M33.2,5.2L34,5.6l1.3-1.7C35,4,34.8,4,34.6,4
		c-0.5,0-0.9-0.2-1.4-0.5V5.2z"/>
</g>
<g>
	<path d="M2.1,6.4l-1-0.9l1-0.9l1,0.9L2.1,6.4z"/>
</g>
<g>
	<path d="M39.7,6.4l-1-0.9l1-0.9l1,0.9L39.7,6.4z"/>
</g>
<g>
</g>
<g>
</g>
<g>
</g>
<g>
</g>
<g>
</g>
<g>
</g>
</svg>
