<svg width="416" height="71" viewBox="0 0 416 71" fill="none" xmlns="http://www.w3.org/2000/svg">
<path d="M55.7812 13.4531H35.9062L26.2969 69H10.2188L19.875 13.4531H0.328125L2.57812 0.75H57.9844L55.7812 13.4531ZM82.4062 44.9062H73.5L69.2812 69H53.25L65.0625 0.75L89.1562 0.796875C96.875 0.796875 102.812 2.60938 106.969 6.23438C111.156 9.82813 113.031 14.75 112.594 21C112.25 25.9375 110.828 30.0312 108.328 33.2812C105.828 36.5 102.328 39.0469 97.8281 40.9219L107.016 68.2031V69H89.9062L82.4062 44.9062ZM75.6562 32.2031L85.0312 32.2969C87.5938 32.2969 89.8125 31.6719 91.6875 30.4219C93.5938 29.1719 94.9531 27.4688 95.7656 25.3125C96.5781 23.125 96.8125 21.0156 96.4688 18.9844C95.8438 15.5156 93.625 13.6875 89.8125 13.5L78.9375 13.4531L75.6562 32.2031ZM131.578 69H115.547L127.406 0.75H143.391L131.578 69ZM207.094 0.75L199.5 45.2812C198.406 53 195.219 59.0781 189.938 63.5156C184.688 67.9531 178.062 70.1094 170.062 69.9844C165.094 69.8906 160.781 68.8281 157.125 66.7969C153.469 64.7344 150.766 61.8438 149.016 58.125C147.297 54.375 146.719 50.1094 147.281 45.3281L154.875 0.75H171L163.453 45.375C163.266 46.9375 163.234 48.4219 163.359 49.8281C163.516 52.1406 164.234 53.9375 165.516 55.2188C166.828 56.5 168.672 57.1875 171.047 57.2812C177.922 57.5 182.062 53.5156 183.469 45.3281L191.062 0.75H207.094ZM238.031 0.75L244.547 48.0938L267.422 0.75H288.797L276.984 69H260.859L263.766 52.2656L270.703 21.4219L246.797 69H236.156L228.422 19.6406L224.109 53.8594L221.438 69H205.406L217.219 0.75H238.031ZM307.594 45.8438L303.562 69H287.531L299.344 0.75L323.859 0.796875C331.453 0.796875 337.422 2.90625 341.766 7.125C346.141 11.3438 348.062 16.8125 347.531 23.5312C347.156 28.125 345.688 32.1094 343.125 35.4844C340.562 38.8594 337.172 41.4375 332.953 43.2188C328.766 45 324.062 45.8906 318.844 45.8906L307.594 45.8438ZM309.797 33.1406L319.453 33.2344C323.516 33.1406 326.625 31.8281 328.781 29.2969C330.938 26.7344 331.797 23.5938 331.359 19.875C331.109 17.9688 330.375 16.4688 329.156 15.375C327.969 14.25 326.391 13.625 324.422 13.5L313.219 13.4531L309.797 33.1406ZM404.062 69H388.125L393.047 40.5H369.656L364.688 69H348.656L360.469 0.75H376.547L371.812 27.8438H395.25L399.938 0.75H415.922L404.062 69Z" fill="white"/>
</svg>
